<?xml version="1.0" encoding="UTF-8"?>
<svg id="Capa_2" data-name="Capa 2" xmlns="http://www.w3.org/2000/svg" viewBox="0 0 300.16 75.71">
  <defs>
    <style>
      .cls-1 {
        fill: #fff;
      }

      .cls-2 {
        fill: none;
        stroke: #fff;
        stroke-miterlimit: 10;
        stroke-width: 1.44px;
      }
    </style>
  </defs>
  <g id="Capa_1-2" data-name="Capa 1">
    <g>
      <g>
        <path class="cls-2" d="M144.69,60.48v14.51h-21.76v-29.02c12,0,21.76,6.51,21.76,14.51ZM68.71,45.96l-.19.18v9.25h-4.36s-5.21,0-5.21,0l-20.28,19.59h45.09v-17h0v-12.01h-15.04ZM57.16,26.37h26.59V2.56l-26.91,23.81h.32ZM59.59,48.13h.02-.01s0,0,0,0ZM29.26,74.97H1.91l30.34-26.84h24.81l-27.79,26.84Z"/>
        <path class="cls-1" d="M144.69,2.43v27.61c-2.34-3.52-6.33-5.84-10.86-5.85h0s-10.9,0-10.9,0V2.43h21.76ZM144.68,37.22c-.02-5.98-4.89-10.84-10.87-10.85h0s-28.3,0-28.3,0V2.43h-21.61l-.15.13v23.81h-26.91l-22.14,19.59h24.6l9.4-9.06v9.06h15.04v29.02h21.76v-29.02h17.41c12,0,21.76,6.51,21.76,14.51v-7.62h0v-15.63h0ZM163.7,71.41c0-1.37,1.14-2.51,2.51-2.51.63,0,1.23.29,1.68.74l-.32.43c-.35-.36-.84-.61-1.38-.61-.98,0-1.93.85-1.93,1.95s.94,1.95,1.94,1.95c.55,0,1.02-.26,1.37-.61l.32.44c-.41.4-.95.72-1.67.72-1.36,0-2.51-1.12-2.51-2.5ZM170.43,69.51v1.54h2.01v.55h-2.01v1.69h2.31v.55h-2.87v-4.88h2.87v.54h-2.31ZM178.87,68.95v4.97h-.03l-3.34-3.71v3.64h-.55v-4.96h.03l3.34,3.71v-3.65h.55ZM184.26,69.51h-1.41v4.33h-.55v-4.33h-1.42v-.54h3.38v.54ZM189.09,73.84l-1.36-1.9h-.91v1.9h-.55v-4.88s1.44,0,1.44,0c.9,0,1.64.7,1.64,1.56,0,.63-.43,1.18-1.03,1.36l1.45,1.97h-.68ZM187.72,71.48c.58,0,1.06-.44,1.06-.97,0-.56-.48-1-1.06-1h-.91v1.96h.91ZM191.41,71.41c0-1.38,1.13-2.51,2.51-2.51s2.51,1.13,2.51,2.51-1.13,2.5-2.51,2.5-2.5-1.13-2.5-2.5ZM195.86,71.4c0-1.07-.88-1.95-1.95-1.95s-1.95.88-1.95,1.95.87,1.95,1.95,1.95,1.95-.87,1.95-1.95ZM205.52,71.41c0,1.49-.97,2.44-2.49,2.44h-1.36v-4.88h1.36c1.52,0,2.49.95,2.49,2.44ZM204.97,71.41c0-1.15-.76-1.9-1.94-1.9h-.8v3.78h.81c1.17,0,1.93-.74,1.93-1.88ZM208.17,69.51v1.54h2.01v.55h-2.01v1.69h2.31v.55h-2.87v-4.88h2.87v.54h-2.31ZM219.02,73.04h-2.66l-.36.8h-.6l2.25-4.95h.06l2.26,4.95h-.6l-.36-.8ZM218.81,72.56l-1.12-2.51-1.12,2.51h2.24ZM224.84,73.3v.55h-2.94v-4.88h.55v4.33h2.39ZM228.96,69.51h-1.41v4.33h-.55v-4.33h-1.42v-.54h3.38v.54ZM233.54,73.04h-2.66l-.36.8h-.6l2.25-4.95h.06l2.26,4.95h-.6l-.36-.8ZM233.33,72.56l-1.12-2.51-1.12,2.51h2.24ZM240.11,69.51v1.54h2.01v.55h-2.01v1.69h2.31v.55h-2.87v-4.88h2.87v.54h-2.31ZM244.33,72.97l.42-.31c.22.42.72.7,1.24.7.64,0,1.16-.34,1.16-.83,0-.55-.7-.81-1.32-1.05-.6-.23-1.27-.53-1.27-1.28s.67-1.31,1.53-1.31c.72,0,1.22.4,1.4.88l-.41.28c-.16-.37-.55-.61-.99-.61-.52,0-.97.35-.97.78,0,.47.54.64,1.16.89.73.3,1.43.64,1.43,1.42,0,.84-.78,1.39-1.72,1.39-.8,0-1.43-.42-1.66-.94ZM249.75,68.97h1.55c.94,0,1.72.71,1.72,1.57s-.77,1.5-1.72,1.5h-1v1.8h-.55v-4.88ZM252.47,70.53c0-.56-.52-1.02-1.17-1.02h-1v1.99h1c.64,0,1.17-.43,1.17-.96ZM255.57,69.51v1.54h2.01v.55h-2.01v1.69h2.31v.55h-2.87v-4.88h2.87v.54h-2.31ZM259.83,71.41c0-1.37,1.14-2.51,2.51-2.51.63,0,1.23.29,1.68.74l-.32.43c-.35-.36-.84-.61-1.38-.61-.98,0-1.93.85-1.93,1.95s.94,1.95,1.94,1.95c.55,0,1.02-.26,1.37-.61l.32.44c-.41.4-.95.72-1.67.72-1.36,0-2.51-1.12-2.51-2.5ZM266.02,68.97h.55v4.88h-.55v-4.88ZM272.11,73.04h-2.66l-.36.8h-.6l2.25-4.95h.06l2.26,4.95h-.6l-.36-.8ZM271.9,72.56l-1.12-2.51-1.12,2.51h2.24ZM277.93,73.3v.55h-2.94v-4.88h.55v4.33h2.39ZM279.93,68.97h.55v4.88h-.55v-4.88ZM286.69,71.41c0,1.49-.97,2.44-2.49,2.44h-1.36v-4.88h1.36c1.52,0,2.49.95,2.49,2.44ZM286.13,71.41c0-1.15-.76-1.9-1.94-1.9h-.8v3.78h.81c1.17,0,1.93-.74,1.93-1.88ZM291.52,73.04h-2.66l-.36.8h-.6l2.25-4.95h.06l2.26,4.95h-.6l-.36-.8ZM291.31,72.56l-1.12-2.51-1.12,2.51h2.24ZM298.25,71.41c0,1.49-.97,2.44-2.49,2.44h-1.36v-4.88h1.36c1.52,0,2.49.95,2.49,2.44ZM297.7,71.41c0-1.15-.76-1.9-1.94-1.9h-.8v3.78h.81c1.17,0,1.93-.74,1.93-1.88ZM174.51,48.05v17.48h-1.96v-7.78h-8.86v7.78h-1.97v-17.48h1.97v7.75h8.86v-7.75h1.96ZM181.6,56.8c0-4.96,4.04-9,8.98-9s8.99,4.05,8.99,9-4.05,8.96-9,8.96-8.97-4.03-8.97-8.96ZM197.57,56.79c0-3.85-3.15-7.01-7.01-7.01s-6.97,3.16-6.97,7.01,3.13,6.97,6.97,6.97,7.01-3.13,7.01-6.97ZM205.56,62.41l1.52-1.12c.79,1.5,2.58,2.49,4.44,2.49,2.29,0,4.15-1.24,4.15-2.96,0-1.96-2.51-2.91-4.74-3.75-2.15-.83-4.54-1.89-4.54-4.59s2.42-4.7,5.49-4.7c2.59,0,4.36,1.42,5.01,3.15l-1.49,1c-.56-1.31-1.97-2.2-3.55-2.2-1.88,0-3.48,1.24-3.48,2.8,0,1.69,1.92,2.31,4.18,3.18,2.62,1.06,5.11,2.28,5.11,5.09,0,3.01-2.79,4.98-6.15,4.98-2.87,0-5.11-1.5-5.94-3.36ZM224.56,48.05h5.54c3.38,0,6.15,2.54,6.15,5.64s-2.77,5.39-6.15,5.39h-3.57v6.45h-1.97v-17.48ZM234.27,53.67c0-2.02-1.88-3.67-4.18-3.67h-3.57v7.12h3.57c2.3.02,4.18-1.54,4.18-3.46ZM242.97,48.05h1.97v17.48h-1.97v-17.48ZM263.8,50h-5.06v15.53h-1.97v-15.53h-5.09v-1.95h12.12v1.95ZM279.75,62.66h-9.54l-1.28,2.87h-2.14l8.08-17.75h.22l8.09,17.75h-2.15l-1.28-2.87ZM278.99,60.94l-4-8.99-4.01,8.99h8.01ZM300.16,63.57v1.96h-10.54v-17.48h1.97v15.52h8.57Z"/>
      </g>
      <g>
        <path class="cls-1" d="M181.42,0h-.26l-19.67,42.2h8.94l2.63-5.75h16.47l2.61,5.75h8.96L181.42,0ZM176.29,29.4l5.03-11.01,5.01,11.01h-10.04Z"/>
        <polygon class="cls-1" points="230.31 33.97 230.31 42.2 205.48 42.2 205.48 1.02 213.76 1.02 213.76 33.97 230.31 33.97"/>
        <polygon class="cls-1" points="243.5 9.17 243.5 17.47 257.7 17.47 257.7 25.72 243.5 25.72 243.5 42.25 235.22 42.25 235.22 .92 260.05 .92 260.05 9.17 243.5 9.17"/>
        <path class="cls-1" d="M276.73,0h-.26l-19.67,42.2h8.94l2.63-5.75h16.47l2.61,5.75h8.96L276.73,0ZM271.6,29.4l5.03-11.01,5.01,11.01h-10.04Z"/>
      </g>
    </g>
  </g>
</svg>